# xmcd
#
# Track frame offsets:
#	150
#	11195
#	22375
#	35402
#	49180
#	60860
#	70405
#	81570
#	96132
#	110145
#	124270
#	138687
#	149677
#	159292
#	172382
#	181940
#	194067
#	206652
#	218120
#	229292
#	239482
#	252060
#	263037
#	276957
#	286540
#	297490
#	308950
#	318200
#	329467
#	339350
#	348222
#
# Disc length: 4771 seconds
#
# Revision: 1
# Processed by: cddbd v1.5PL3 Copyright (c) Steve Scherf et al.
# Submitted via: audiograbber 1.80
#
DISCID=f312a11f
DTITLE=BLACKWOOD BROTHERS - Rock-A-My-Soul disc 1
DYEAR=1900
DGENRE=
TTITLE0=Everywhere He Went (He Was Doing Good) 
TTITLE1=Rock-A-My-Soul 
TTITLE2=I Won't Have To Cross Jordan Alone 
TTITLE3=The Love Of God 
TTITLE4=The Keys To The Kingdom 
TTITLE5=Angels Watches Over Me 
TTITLE6=My Journey To The Sky 
TTITLE7=He Bought My Soul At Calvary 
TTITLE8=Peace In The Valley 
TTITLE9=It Is No Secret 
TTITLE10=Take My Hand Precious Lord 
TTITLE11=Mansion Over The Hilltop 
TTITLE12=Wanta Rest 
TTITLE13=Swing Down Chariot 
TTITLE14=Oh, What A Time 
TTITLE15=My God Is Real 
TTITLE16=The Hand Of God 
TTITLE17=Joy, Joy, Joy (To My Soul) 
TTITLE18=At The End Of The Trail 
TTITLE19=He Knows Just How Much You Can Bear 
TTITLE20=Someone To Care 
TTITLE21=How Many Times 
TTITLE22=Peace Like A River 
TTITLE23=Every Day Will Be Sunday, By And By 
TTITLE24=Gloryland Jubilee 
TTITLE25=One Step (Toward The Lord) 
TTITLE26=His Hand In Mine 
TTITLE27=Jesus The Way Maker 
TTITLE28=I'm Feelin' Fine 
TTITLE29=Brush The Dust Off The Bible 
TTITLE30=The Man Upstairs 
EXTD=
EXTT0=
EXTT1=
EXTT2=
EXTT3=
EXTT4=
EXTT5=
EXTT6=
EXTT7=
EXTT8=
EXTT9=
EXTT10=
EXTT11=
EXTT12=
EXTT13=
EXTT14=
EXTT15=
EXTT16=
EXTT17=
EXTT18=
EXTT19=
EXTT20=
EXTT21=
EXTT22=
EXTT23=
EXTT24=
EXTT25=
EXTT26=
EXTT27=
EXTT28=
EXTT29=
EXTT30=
PLAYORDER=
